<mxfile host="app.diagrams.net" agent="Mozilla/5.0 (X11; Linux x86_64; rv:133.0) Gecko/20100101 Firefox/133.0" version="28.0.4">
  <diagram id="C5RBs43oDa-KdzZeNtuy" name="Page-1">
    <mxGraphModel dx="1246" dy="631" grid="1" gridSize="10" guides="1" tooltips="1" connect="1" arrows="1" fold="1" page="1" pageScale="1" pageWidth="827" pageHeight="1169" math="0" shadow="0">
      <root>
        <mxCell id="WIyWlLk6GJQsqaUBKTNV-0" />
        <mxCell id="WIyWlLk6GJQsqaUBKTNV-1" parent="WIyWlLk6GJQsqaUBKTNV-0" />
        <mxCell id="B_APaOrJ2emBslFfA4eh-44" value="" style="rounded=0;whiteSpace=wrap;html=1;labelBackgroundColor=none;" vertex="1" parent="WIyWlLk6GJQsqaUBKTNV-1">
          <mxGeometry x="240" y="60" width="680" height="1100" as="geometry" />
        </mxCell>
        <mxCell id="B_APaOrJ2emBslFfA4eh-45" style="edgeStyle=none;shape=connector;rounded=0;orthogonalLoop=1;jettySize=auto;html=1;strokeColor=default;align=center;verticalAlign=middle;fontFamily=Helvetica;fontSize=11;fontColor=default;labelBackgroundColor=default;endArrow=classic;" edge="1" parent="WIyWlLk6GJQsqaUBKTNV-1" source="B_APaOrJ2emBslFfA4eh-48" target="B_APaOrJ2emBslFfA4eh-60">
          <mxGeometry relative="1" as="geometry" />
        </mxCell>
        <mxCell id="B_APaOrJ2emBslFfA4eh-46" style="edgeStyle=none;shape=connector;rounded=0;orthogonalLoop=1;jettySize=auto;html=1;strokeColor=default;align=center;verticalAlign=middle;fontFamily=Helvetica;fontSize=11;fontColor=default;labelBackgroundColor=default;endArrow=classic;" edge="1" parent="WIyWlLk6GJQsqaUBKTNV-1" source="B_APaOrJ2emBslFfA4eh-48" target="B_APaOrJ2emBslFfA4eh-50">
          <mxGeometry relative="1" as="geometry" />
        </mxCell>
        <mxCell id="B_APaOrJ2emBslFfA4eh-47" style="edgeStyle=none;shape=connector;rounded=0;orthogonalLoop=1;jettySize=auto;html=1;strokeColor=default;align=center;verticalAlign=middle;fontFamily=Helvetica;fontSize=11;fontColor=default;labelBackgroundColor=default;endArrow=classic;" edge="1" parent="WIyWlLk6GJQsqaUBKTNV-1" source="B_APaOrJ2emBslFfA4eh-48" target="B_APaOrJ2emBslFfA4eh-57">
          <mxGeometry relative="1" as="geometry" />
        </mxCell>
        <mxCell id="B_APaOrJ2emBslFfA4eh-48" value="&lt;div&gt;&lt;u&gt;:User&lt;/u&gt;&lt;/div&gt;" style="shape=umlActor;verticalLabelPosition=bottom;verticalAlign=top;html=1;outlineConnect=0;labelBackgroundColor=none;" vertex="1" parent="WIyWlLk6GJQsqaUBKTNV-1">
          <mxGeometry x="90" y="470" width="91" height="160" as="geometry" />
        </mxCell>
        <mxCell id="B_APaOrJ2emBslFfA4eh-49" value="&lt;div&gt;User Login&lt;/div&gt;" style="ellipse;whiteSpace=wrap;html=1;labelBackgroundColor=none;" vertex="1" parent="WIyWlLk6GJQsqaUBKTNV-1">
          <mxGeometry x="260" y="90" width="120" height="60" as="geometry" />
        </mxCell>
        <mxCell id="B_APaOrJ2emBslFfA4eh-50" value="&lt;div&gt;User Logout&lt;/div&gt;" style="ellipse;whiteSpace=wrap;html=1;labelBackgroundColor=none;" vertex="1" parent="WIyWlLk6GJQsqaUBKTNV-1">
          <mxGeometry x="280" y="690" width="120" height="60" as="geometry" />
        </mxCell>
        <mxCell id="B_APaOrJ2emBslFfA4eh-51" value="View User Dashboard" style="ellipse;whiteSpace=wrap;html=1;labelBackgroundColor=none;" vertex="1" parent="WIyWlLk6GJQsqaUBKTNV-1">
          <mxGeometry x="300" y="170" width="120" height="60" as="geometry" />
        </mxCell>
        <mxCell id="B_APaOrJ2emBslFfA4eh-52" value="View My Warning Messages" style="ellipse;whiteSpace=wrap;html=1;labelBackgroundColor=none;" vertex="1" parent="WIyWlLk6GJQsqaUBKTNV-1">
          <mxGeometry x="310" y="520" width="120" height="60" as="geometry" />
        </mxCell>
        <mxCell id="B_APaOrJ2emBslFfA4eh-53" style="rounded=0;orthogonalLoop=1;jettySize=auto;html=1;dashed=1;dashPattern=8 8;" edge="1" parent="WIyWlLk6GJQsqaUBKTNV-1" source="B_APaOrJ2emBslFfA4eh-57" target="B_APaOrJ2emBslFfA4eh-58">
          <mxGeometry relative="1" as="geometry" />
        </mxCell>
        <mxCell id="B_APaOrJ2emBslFfA4eh-54" value="&amp;lt;&amp;lt;extend&amp;gt;&amp;gt;" style="edgeLabel;html=1;align=center;verticalAlign=middle;resizable=0;points=[];" vertex="1" connectable="0" parent="B_APaOrJ2emBslFfA4eh-53">
          <mxGeometry x="-0.0375" y="-1" relative="1" as="geometry">
            <mxPoint x="34" as="offset" />
          </mxGeometry>
        </mxCell>
        <mxCell id="B_APaOrJ2emBslFfA4eh-55" style="rounded=0;orthogonalLoop=1;jettySize=auto;html=1;startArrow=none;startFill=0;dashed=1;dashPattern=8 8;" edge="1" parent="WIyWlLk6GJQsqaUBKTNV-1" source="B_APaOrJ2emBslFfA4eh-57" target="B_APaOrJ2emBslFfA4eh-52">
          <mxGeometry relative="1" as="geometry" />
        </mxCell>
        <mxCell id="B_APaOrJ2emBslFfA4eh-56" value="&amp;lt;&amp;lt;extend&amp;gt;&amp;gt;" style="edgeLabel;html=1;align=center;verticalAlign=middle;resizable=0;points=[];" vertex="1" connectable="0" parent="B_APaOrJ2emBslFfA4eh-55">
          <mxGeometry x="-0.2993" relative="1" as="geometry">
            <mxPoint x="-41" y="3" as="offset" />
          </mxGeometry>
        </mxCell>
        <mxCell id="B_APaOrJ2emBslFfA4eh-57" value="Mark As Read" style="ellipse;whiteSpace=wrap;html=1;labelBackgroundColor=none;" vertex="1" parent="WIyWlLk6GJQsqaUBKTNV-1">
          <mxGeometry x="330" y="430" width="120" height="60" as="geometry" />
        </mxCell>
        <mxCell id="B_APaOrJ2emBslFfA4eh-58" value="&lt;div&gt;Check My Receipts&lt;/div&gt;" style="ellipse;whiteSpace=wrap;html=1;labelBackgroundColor=none;" vertex="1" parent="WIyWlLk6GJQsqaUBKTNV-1">
          <mxGeometry x="320" y="340" width="120" height="60" as="geometry" />
        </mxCell>
        <mxCell id="B_APaOrJ2emBslFfA4eh-59" value="Submit Payment" style="ellipse;whiteSpace=wrap;html=1;labelBackgroundColor=none;" vertex="1" parent="WIyWlLk6GJQsqaUBKTNV-1">
          <mxGeometry x="310" y="260" width="120" height="60" as="geometry" />
        </mxCell>
        <mxCell id="B_APaOrJ2emBslFfA4eh-60" value="&lt;div&gt;View My Shops&lt;/div&gt;" style="ellipse;whiteSpace=wrap;html=1;labelBackgroundColor=none;" vertex="1" parent="WIyWlLk6GJQsqaUBKTNV-1">
          <mxGeometry x="280" y="590" width="120" height="60" as="geometry" />
        </mxCell>
        <mxCell id="B_APaOrJ2emBslFfA4eh-61" value="Create User Accout" style="ellipse;whiteSpace=wrap;html=1;labelBackgroundColor=none;" vertex="1" parent="WIyWlLk6GJQsqaUBKTNV-1">
          <mxGeometry x="680" y="220" width="120" height="60" as="geometry" />
        </mxCell>
        <mxCell id="B_APaOrJ2emBslFfA4eh-62" value="View All Users" style="ellipse;whiteSpace=wrap;html=1;labelBackgroundColor=none;" vertex="1" parent="WIyWlLk6GJQsqaUBKTNV-1">
          <mxGeometry x="510" y="160" width="120" height="60" as="geometry" />
        </mxCell>
        <mxCell id="B_APaOrJ2emBslFfA4eh-63" value="Search user by name" style="ellipse;whiteSpace=wrap;html=1;labelBackgroundColor=none;" vertex="1" parent="WIyWlLk6GJQsqaUBKTNV-1">
          <mxGeometry x="530" y="250" width="120" height="60" as="geometry" />
        </mxCell>
        <mxCell id="B_APaOrJ2emBslFfA4eh-64" value="Search admin by name" style="ellipse;whiteSpace=wrap;html=1;labelBackgroundColor=none;" vertex="1" parent="WIyWlLk6GJQsqaUBKTNV-1">
          <mxGeometry x="580" y="440" width="120" height="60" as="geometry" />
        </mxCell>
        <mxCell id="B_APaOrJ2emBslFfA4eh-65" value="Create Admin Account by only with Highest Authority" style="ellipse;whiteSpace=wrap;html=1;labelBackgroundColor=none;" vertex="1" parent="WIyWlLk6GJQsqaUBKTNV-1">
          <mxGeometry x="620" y="360" width="120" height="60" as="geometry" />
        </mxCell>
        <mxCell id="B_APaOrJ2emBslFfA4eh-66" value="&lt;div&gt;Add New Shops&lt;/div&gt;" style="ellipse;whiteSpace=wrap;html=1;labelBackgroundColor=none;" vertex="1" parent="WIyWlLk6GJQsqaUBKTNV-1">
          <mxGeometry x="520" y="950" width="120" height="60" as="geometry" />
        </mxCell>
        <mxCell id="B_APaOrJ2emBslFfA4eh-67" value="Remove or Assign User From/to Shop" style="ellipse;whiteSpace=wrap;html=1;labelBackgroundColor=none;" vertex="1" parent="WIyWlLk6GJQsqaUBKTNV-1">
          <mxGeometry x="770" y="940" width="120" height="60" as="geometry" />
        </mxCell>
        <mxCell id="B_APaOrJ2emBslFfA4eh-68" value="Change Shop Tax Rate" style="ellipse;whiteSpace=wrap;html=1;labelBackgroundColor=none;" vertex="1" parent="WIyWlLk6GJQsqaUBKTNV-1">
          <mxGeometry x="660" y="890" width="120" height="60" as="geometry" />
        </mxCell>
        <mxCell id="B_APaOrJ2emBslFfA4eh-69" style="rounded=0;orthogonalLoop=1;jettySize=auto;html=1;dashed=1;dashPattern=8 8;" edge="1" parent="WIyWlLk6GJQsqaUBKTNV-1" source="B_APaOrJ2emBslFfA4eh-71" target="B_APaOrJ2emBslFfA4eh-110">
          <mxGeometry relative="1" as="geometry" />
        </mxCell>
        <mxCell id="B_APaOrJ2emBslFfA4eh-70" value="&amp;lt;&amp;lt;extend&amp;gt;&amp;gt; : on reject" style="edgeLabel;html=1;align=center;verticalAlign=middle;resizable=0;points=[];" vertex="1" connectable="0" parent="B_APaOrJ2emBslFfA4eh-69">
          <mxGeometry x="-0.0788" y="-2" relative="1" as="geometry">
            <mxPoint x="-9" y="20" as="offset" />
          </mxGeometry>
        </mxCell>
        <mxCell id="B_APaOrJ2emBslFfA4eh-71" value="Send Warning Messages" style="ellipse;whiteSpace=wrap;html=1;labelBackgroundColor=none;" vertex="1" parent="WIyWlLk6GJQsqaUBKTNV-1">
          <mxGeometry x="430" y="470" width="120" height="60" as="geometry" />
        </mxCell>
        <mxCell id="B_APaOrJ2emBslFfA4eh-72" value="&lt;div&gt;View All Receipts&lt;/div&gt;" style="ellipse;whiteSpace=wrap;html=1;labelBackgroundColor=none;" vertex="1" parent="WIyWlLk6GJQsqaUBKTNV-1">
          <mxGeometry x="500" y="680" width="120" height="60" as="geometry" />
        </mxCell>
        <mxCell id="B_APaOrJ2emBslFfA4eh-73" value="View All Warning Messags" style="ellipse;whiteSpace=wrap;html=1;labelBackgroundColor=none;" vertex="1" parent="WIyWlLk6GJQsqaUBKTNV-1">
          <mxGeometry x="580" y="520" width="120" height="60" as="geometry" />
        </mxCell>
        <mxCell id="B_APaOrJ2emBslFfA4eh-74" value="Check Overdue Shops" style="ellipse;whiteSpace=wrap;html=1;labelBackgroundColor=none;" vertex="1" parent="WIyWlLk6GJQsqaUBKTNV-1">
          <mxGeometry x="450" y="830" width="120" height="60" as="geometry" />
        </mxCell>
        <mxCell id="B_APaOrJ2emBslFfA4eh-75" value="View Admin Dashboard" style="ellipse;whiteSpace=wrap;html=1;labelBackgroundColor=none;" vertex="1" parent="WIyWlLk6GJQsqaUBKTNV-1">
          <mxGeometry x="700" y="140" width="120" height="60" as="geometry" />
        </mxCell>
        <mxCell id="B_APaOrJ2emBslFfA4eh-76" style="rounded=0;orthogonalLoop=1;jettySize=auto;html=1;labelBackgroundColor=none;fontColor=default;" edge="1" parent="WIyWlLk6GJQsqaUBKTNV-1" source="B_APaOrJ2emBslFfA4eh-48" target="B_APaOrJ2emBslFfA4eh-49">
          <mxGeometry relative="1" as="geometry" />
        </mxCell>
        <mxCell id="B_APaOrJ2emBslFfA4eh-77" style="rounded=0;orthogonalLoop=1;jettySize=auto;html=1;labelBackgroundColor=none;fontColor=default;" edge="1" parent="WIyWlLk6GJQsqaUBKTNV-1" source="B_APaOrJ2emBslFfA4eh-48" target="B_APaOrJ2emBslFfA4eh-51">
          <mxGeometry relative="1" as="geometry" />
        </mxCell>
        <mxCell id="B_APaOrJ2emBslFfA4eh-78" style="rounded=0;orthogonalLoop=1;jettySize=auto;html=1;" edge="1" parent="WIyWlLk6GJQsqaUBKTNV-1" source="B_APaOrJ2emBslFfA4eh-48" target="B_APaOrJ2emBslFfA4eh-59">
          <mxGeometry relative="1" as="geometry" />
        </mxCell>
        <mxCell id="B_APaOrJ2emBslFfA4eh-79" style="edgeStyle=none;shape=connector;rounded=0;orthogonalLoop=1;jettySize=auto;html=1;strokeColor=default;align=center;verticalAlign=middle;fontFamily=Helvetica;fontSize=11;fontColor=default;labelBackgroundColor=default;endArrow=classic;" edge="1" parent="WIyWlLk6GJQsqaUBKTNV-1" source="B_APaOrJ2emBslFfA4eh-48" target="B_APaOrJ2emBslFfA4eh-58">
          <mxGeometry relative="1" as="geometry" />
        </mxCell>
        <mxCell id="B_APaOrJ2emBslFfA4eh-80" style="edgeStyle=none;shape=connector;rounded=0;orthogonalLoop=1;jettySize=auto;html=1;strokeColor=default;align=center;verticalAlign=middle;fontFamily=Helvetica;fontSize=11;fontColor=default;labelBackgroundColor=default;endArrow=classic;" edge="1" parent="WIyWlLk6GJQsqaUBKTNV-1" source="B_APaOrJ2emBslFfA4eh-48" target="B_APaOrJ2emBslFfA4eh-52">
          <mxGeometry relative="1" as="geometry" />
        </mxCell>
        <mxCell id="B_APaOrJ2emBslFfA4eh-81" style="edgeStyle=none;shape=connector;rounded=0;orthogonalLoop=1;jettySize=auto;html=1;entryX=1;entryY=1;entryDx=0;entryDy=0;strokeColor=default;align=center;verticalAlign=middle;fontFamily=Helvetica;fontSize=11;fontColor=default;labelBackgroundColor=default;endArrow=classic;" edge="1" parent="WIyWlLk6GJQsqaUBKTNV-1" source="B_APaOrJ2emBslFfA4eh-102" target="B_APaOrJ2emBslFfA4eh-106">
          <mxGeometry relative="1" as="geometry" />
        </mxCell>
        <mxCell id="B_APaOrJ2emBslFfA4eh-82" style="edgeStyle=none;shape=connector;rounded=0;orthogonalLoop=1;jettySize=auto;html=1;strokeColor=default;align=center;verticalAlign=middle;fontFamily=Helvetica;fontSize=11;fontColor=default;labelBackgroundColor=default;endArrow=classic;" edge="1" parent="WIyWlLk6GJQsqaUBKTNV-1" source="B_APaOrJ2emBslFfA4eh-102" target="B_APaOrJ2emBslFfA4eh-75">
          <mxGeometry relative="1" as="geometry" />
        </mxCell>
        <mxCell id="B_APaOrJ2emBslFfA4eh-83" style="edgeStyle=none;shape=connector;rounded=0;orthogonalLoop=1;jettySize=auto;html=1;strokeColor=default;align=center;verticalAlign=middle;fontFamily=Helvetica;fontSize=11;fontColor=default;labelBackgroundColor=default;endArrow=classic;" edge="1" parent="WIyWlLk6GJQsqaUBKTNV-1" source="B_APaOrJ2emBslFfA4eh-102" target="B_APaOrJ2emBslFfA4eh-62">
          <mxGeometry relative="1" as="geometry" />
        </mxCell>
        <mxCell id="B_APaOrJ2emBslFfA4eh-84" style="edgeStyle=none;shape=connector;rounded=0;orthogonalLoop=1;jettySize=auto;html=1;strokeColor=default;align=center;verticalAlign=middle;fontFamily=Helvetica;fontSize=11;fontColor=default;labelBackgroundColor=default;endArrow=classic;" edge="1" parent="WIyWlLk6GJQsqaUBKTNV-1" source="B_APaOrJ2emBslFfA4eh-102" target="B_APaOrJ2emBslFfA4eh-61">
          <mxGeometry relative="1" as="geometry" />
        </mxCell>
        <mxCell id="B_APaOrJ2emBslFfA4eh-85" style="edgeStyle=none;shape=connector;rounded=0;orthogonalLoop=1;jettySize=auto;html=1;strokeColor=default;align=center;verticalAlign=middle;fontFamily=Helvetica;fontSize=11;fontColor=default;labelBackgroundColor=default;endArrow=classic;" edge="1" parent="WIyWlLk6GJQsqaUBKTNV-1" source="B_APaOrJ2emBslFfA4eh-102" target="B_APaOrJ2emBslFfA4eh-63">
          <mxGeometry relative="1" as="geometry" />
        </mxCell>
        <mxCell id="B_APaOrJ2emBslFfA4eh-86" style="edgeStyle=none;shape=connector;rounded=0;orthogonalLoop=1;jettySize=auto;html=1;strokeColor=default;align=center;verticalAlign=middle;fontFamily=Helvetica;fontSize=11;fontColor=default;labelBackgroundColor=default;endArrow=classic;" edge="1" parent="WIyWlLk6GJQsqaUBKTNV-1" source="B_APaOrJ2emBslFfA4eh-102" target="B_APaOrJ2emBslFfA4eh-109">
          <mxGeometry relative="1" as="geometry" />
        </mxCell>
        <mxCell id="B_APaOrJ2emBslFfA4eh-87" style="edgeStyle=none;shape=connector;rounded=0;orthogonalLoop=1;jettySize=auto;html=1;strokeColor=default;align=center;verticalAlign=middle;fontFamily=Helvetica;fontSize=11;fontColor=default;labelBackgroundColor=default;endArrow=classic;" edge="1" parent="WIyWlLk6GJQsqaUBKTNV-1" source="B_APaOrJ2emBslFfA4eh-102" target="B_APaOrJ2emBslFfA4eh-66">
          <mxGeometry relative="1" as="geometry" />
        </mxCell>
        <mxCell id="B_APaOrJ2emBslFfA4eh-88" style="edgeStyle=none;shape=connector;rounded=0;orthogonalLoop=1;jettySize=auto;html=1;strokeColor=default;align=center;verticalAlign=middle;fontFamily=Helvetica;fontSize=11;fontColor=default;labelBackgroundColor=default;endArrow=classic;" edge="1" parent="WIyWlLk6GJQsqaUBKTNV-1" source="B_APaOrJ2emBslFfA4eh-102" target="B_APaOrJ2emBslFfA4eh-67">
          <mxGeometry relative="1" as="geometry" />
        </mxCell>
        <mxCell id="B_APaOrJ2emBslFfA4eh-89" style="edgeStyle=none;shape=connector;rounded=0;orthogonalLoop=1;jettySize=auto;html=1;strokeColor=default;align=center;verticalAlign=middle;fontFamily=Helvetica;fontSize=11;fontColor=default;labelBackgroundColor=default;endArrow=classic;" edge="1" parent="WIyWlLk6GJQsqaUBKTNV-1" source="B_APaOrJ2emBslFfA4eh-102" target="B_APaOrJ2emBslFfA4eh-74">
          <mxGeometry relative="1" as="geometry" />
        </mxCell>
        <mxCell id="B_APaOrJ2emBslFfA4eh-90" style="edgeStyle=none;shape=connector;rounded=0;orthogonalLoop=1;jettySize=auto;html=1;strokeColor=default;align=center;verticalAlign=middle;fontFamily=Helvetica;fontSize=11;fontColor=default;labelBackgroundColor=default;endArrow=classic;" edge="1" parent="WIyWlLk6GJQsqaUBKTNV-1" source="B_APaOrJ2emBslFfA4eh-102" target="B_APaOrJ2emBslFfA4eh-107">
          <mxGeometry relative="1" as="geometry" />
        </mxCell>
        <mxCell id="B_APaOrJ2emBslFfA4eh-91" style="edgeStyle=none;shape=connector;rounded=0;orthogonalLoop=1;jettySize=auto;html=1;strokeColor=default;align=center;verticalAlign=middle;fontFamily=Helvetica;fontSize=11;fontColor=default;labelBackgroundColor=default;endArrow=classic;" edge="1" parent="WIyWlLk6GJQsqaUBKTNV-1" source="B_APaOrJ2emBslFfA4eh-102" target="B_APaOrJ2emBslFfA4eh-104">
          <mxGeometry relative="1" as="geometry" />
        </mxCell>
        <mxCell id="B_APaOrJ2emBslFfA4eh-92" style="edgeStyle=none;shape=connector;rounded=0;orthogonalLoop=1;jettySize=auto;html=1;strokeColor=default;align=center;verticalAlign=middle;fontFamily=Helvetica;fontSize=11;fontColor=default;labelBackgroundColor=default;endArrow=classic;" edge="1" parent="WIyWlLk6GJQsqaUBKTNV-1" source="B_APaOrJ2emBslFfA4eh-102" target="B_APaOrJ2emBslFfA4eh-68">
          <mxGeometry relative="1" as="geometry" />
        </mxCell>
        <mxCell id="B_APaOrJ2emBslFfA4eh-93" style="edgeStyle=none;shape=connector;rounded=0;orthogonalLoop=1;jettySize=auto;html=1;strokeColor=default;align=center;verticalAlign=middle;fontFamily=Helvetica;fontSize=11;fontColor=default;labelBackgroundColor=default;endArrow=classic;" edge="1" parent="WIyWlLk6GJQsqaUBKTNV-1" source="B_APaOrJ2emBslFfA4eh-102" target="B_APaOrJ2emBslFfA4eh-65">
          <mxGeometry relative="1" as="geometry" />
        </mxCell>
        <mxCell id="B_APaOrJ2emBslFfA4eh-94" style="edgeStyle=none;shape=connector;rounded=0;orthogonalLoop=1;jettySize=auto;html=1;strokeColor=default;align=center;verticalAlign=middle;fontFamily=Helvetica;fontSize=11;fontColor=default;labelBackgroundColor=default;endArrow=classic;" edge="1" parent="WIyWlLk6GJQsqaUBKTNV-1" source="B_APaOrJ2emBslFfA4eh-102" target="B_APaOrJ2emBslFfA4eh-108">
          <mxGeometry relative="1" as="geometry" />
        </mxCell>
        <mxCell id="B_APaOrJ2emBslFfA4eh-95" style="edgeStyle=none;shape=connector;rounded=0;orthogonalLoop=1;jettySize=auto;html=1;strokeColor=default;align=center;verticalAlign=middle;fontFamily=Helvetica;fontSize=11;fontColor=default;labelBackgroundColor=default;endArrow=classic;" edge="1" parent="WIyWlLk6GJQsqaUBKTNV-1" source="B_APaOrJ2emBslFfA4eh-102" target="B_APaOrJ2emBslFfA4eh-64">
          <mxGeometry relative="1" as="geometry" />
        </mxCell>
        <mxCell id="B_APaOrJ2emBslFfA4eh-96" style="edgeStyle=none;shape=connector;rounded=0;orthogonalLoop=1;jettySize=auto;html=1;strokeColor=default;align=center;verticalAlign=middle;fontFamily=Helvetica;fontSize=11;fontColor=default;labelBackgroundColor=default;endArrow=classic;" edge="1" parent="WIyWlLk6GJQsqaUBKTNV-1" source="B_APaOrJ2emBslFfA4eh-102" target="B_APaOrJ2emBslFfA4eh-71">
          <mxGeometry relative="1" as="geometry" />
        </mxCell>
        <mxCell id="B_APaOrJ2emBslFfA4eh-97" style="edgeStyle=none;shape=connector;rounded=0;orthogonalLoop=1;jettySize=auto;html=1;strokeColor=default;align=center;verticalAlign=middle;fontFamily=Helvetica;fontSize=11;fontColor=default;labelBackgroundColor=default;endArrow=classic;" edge="1" parent="WIyWlLk6GJQsqaUBKTNV-1" source="B_APaOrJ2emBslFfA4eh-102" target="B_APaOrJ2emBslFfA4eh-73">
          <mxGeometry relative="1" as="geometry" />
        </mxCell>
        <mxCell id="B_APaOrJ2emBslFfA4eh-98" style="edgeStyle=none;shape=connector;rounded=0;orthogonalLoop=1;jettySize=auto;html=1;strokeColor=default;align=center;verticalAlign=middle;fontFamily=Helvetica;fontSize=11;fontColor=default;labelBackgroundColor=default;endArrow=classic;" edge="1" parent="WIyWlLk6GJQsqaUBKTNV-1" source="B_APaOrJ2emBslFfA4eh-102" target="B_APaOrJ2emBslFfA4eh-105">
          <mxGeometry relative="1" as="geometry" />
        </mxCell>
        <mxCell id="B_APaOrJ2emBslFfA4eh-99" style="edgeStyle=none;shape=connector;rounded=0;orthogonalLoop=1;jettySize=auto;html=1;strokeColor=default;align=center;verticalAlign=middle;fontFamily=Helvetica;fontSize=11;fontColor=default;labelBackgroundColor=default;endArrow=classic;" edge="1" parent="WIyWlLk6GJQsqaUBKTNV-1" source="B_APaOrJ2emBslFfA4eh-102" target="B_APaOrJ2emBslFfA4eh-103">
          <mxGeometry relative="1" as="geometry" />
        </mxCell>
        <mxCell id="B_APaOrJ2emBslFfA4eh-100" style="edgeStyle=none;shape=connector;rounded=0;orthogonalLoop=1;jettySize=auto;html=1;strokeColor=default;align=center;verticalAlign=middle;fontFamily=Helvetica;fontSize=11;fontColor=default;labelBackgroundColor=default;endArrow=classic;" edge="1" parent="WIyWlLk6GJQsqaUBKTNV-1" source="B_APaOrJ2emBslFfA4eh-102" target="B_APaOrJ2emBslFfA4eh-110">
          <mxGeometry relative="1" as="geometry" />
        </mxCell>
        <mxCell id="B_APaOrJ2emBslFfA4eh-101" style="edgeStyle=none;shape=connector;rounded=0;orthogonalLoop=1;jettySize=auto;html=1;strokeColor=default;align=center;verticalAlign=middle;fontFamily=Helvetica;fontSize=11;fontColor=default;labelBackgroundColor=default;endArrow=classic;" edge="1" parent="WIyWlLk6GJQsqaUBKTNV-1" source="B_APaOrJ2emBslFfA4eh-102" target="B_APaOrJ2emBslFfA4eh-72">
          <mxGeometry relative="1" as="geometry" />
        </mxCell>
        <mxCell id="B_APaOrJ2emBslFfA4eh-102" value="&lt;u&gt;:Admin&lt;/u&gt;" style="shape=umlActor;verticalLabelPosition=bottom;verticalAlign=top;html=1;outlineConnect=0;labelBackgroundColor=none;" vertex="1" parent="WIyWlLk6GJQsqaUBKTNV-1">
          <mxGeometry x="990" y="470" width="91" height="160" as="geometry" />
        </mxCell>
        <mxCell id="B_APaOrJ2emBslFfA4eh-103" value="Check All User Payments" style="ellipse;whiteSpace=wrap;html=1;labelBackgroundColor=none;" vertex="1" parent="WIyWlLk6GJQsqaUBKTNV-1">
          <mxGeometry x="610" y="600" width="120" height="60" as="geometry" />
        </mxCell>
        <mxCell id="B_APaOrJ2emBslFfA4eh-104" value="Generate PDF Payment Report" style="ellipse;whiteSpace=wrap;html=1;labelBackgroundColor=none;" vertex="1" parent="WIyWlLk6GJQsqaUBKTNV-1">
          <mxGeometry x="610" y="790" width="120" height="60" as="geometry" />
        </mxCell>
        <mxCell id="B_APaOrJ2emBslFfA4eh-105" value="Filter Payment with Status" style="ellipse;whiteSpace=wrap;html=1;labelBackgroundColor=none;" vertex="1" parent="WIyWlLk6GJQsqaUBKTNV-1">
          <mxGeometry x="495" y="570" width="120" height="60" as="geometry" />
        </mxCell>
        <mxCell id="B_APaOrJ2emBslFfA4eh-106" value="Admin Login" style="ellipse;whiteSpace=wrap;html=1;labelBackgroundColor=none;" vertex="1" parent="WIyWlLk6GJQsqaUBKTNV-1">
          <mxGeometry x="740" y="70" width="120" height="60" as="geometry" />
        </mxCell>
        <mxCell id="B_APaOrJ2emBslFfA4eh-107" value="Admin Logout" style="ellipse;whiteSpace=wrap;html=1;labelBackgroundColor=none;" vertex="1" parent="WIyWlLk6GJQsqaUBKTNV-1">
          <mxGeometry x="790" y="1090" width="120" height="60" as="geometry" />
        </mxCell>
        <mxCell id="B_APaOrJ2emBslFfA4eh-108" value="View All Admins" style="ellipse;whiteSpace=wrap;html=1;labelBackgroundColor=none;" vertex="1" parent="WIyWlLk6GJQsqaUBKTNV-1">
          <mxGeometry x="460" y="350" width="120" height="60" as="geometry" />
        </mxCell>
        <mxCell id="B_APaOrJ2emBslFfA4eh-109" value="View All Shops" style="ellipse;whiteSpace=wrap;html=1;labelBackgroundColor=none;" vertex="1" parent="WIyWlLk6GJQsqaUBKTNV-1">
          <mxGeometry x="660" y="1000" width="120" height="60" as="geometry" />
        </mxCell>
        <mxCell id="B_APaOrJ2emBslFfA4eh-110" value="Accept or Reject Payments" style="ellipse;whiteSpace=wrap;html=1;labelBackgroundColor=none;" vertex="1" parent="WIyWlLk6GJQsqaUBKTNV-1">
          <mxGeometry x="410" y="770" width="120" height="60" as="geometry" />
        </mxCell>
        <mxCell id="B_APaOrJ2emBslFfA4eh-111" value="Send Receipt" style="ellipse;whiteSpace=wrap;html=1;labelBackgroundColor=none;" vertex="1" parent="WIyWlLk6GJQsqaUBKTNV-1">
          <mxGeometry x="330" y="900" width="120" height="60" as="geometry" />
        </mxCell>
        <mxCell id="B_APaOrJ2emBslFfA4eh-112" style="rounded=0;orthogonalLoop=1;jettySize=auto;html=1;entryX=0.198;entryY=0.84;entryDx=0;entryDy=0;entryPerimeter=0;dashed=1;dashPattern=8 8;" edge="1" parent="WIyWlLk6GJQsqaUBKTNV-1" source="B_APaOrJ2emBslFfA4eh-111" target="B_APaOrJ2emBslFfA4eh-110">
          <mxGeometry relative="1" as="geometry" />
        </mxCell>
        <mxCell id="B_APaOrJ2emBslFfA4eh-113" value="&amp;lt;&amp;lt;extend&amp;gt;&amp;gt; : on accept" style="edgeLabel;html=1;align=center;verticalAlign=middle;resizable=0;points=[];" vertex="1" connectable="0" parent="B_APaOrJ2emBslFfA4eh-112">
          <mxGeometry x="-0.2029" y="-1" relative="1" as="geometry">
            <mxPoint x="-65" y="-9" as="offset" />
          </mxGeometry>
        </mxCell>
      </root>
    </mxGraphModel>
  </diagram>
</mxfile>
